<?xml version="1.0" encoding="UTF-8"?><svg xmlns="http://www.w3.org/2000/svg" xmlns:xlink="http://www.w3.org/1999/xlink" viewBox="0 0 253.89 93.28"><defs><clipPath id="clippath"><rect x="75.97" y="-9.56" width="90.29" height="94.09" style="fill:none;"/></clipPath><clipPath id="clippath-1"><rect x="75.97" y="-9.56" width="90.29" height="94.09" style="fill:none;"/></clipPath><image id="image" width="545" height="255" xlink:href="../../../gDrive-team/metarex/metarex-art/original-ideas/metarex-train-light.png"/></defs><g id="Layer_1"><g style="clip-path:url(#clippath);"><g style="clip-path:url(#clippath-1);"><path d="M144.17,15.1l18.24-.04c.08,0,.12,.09,.1,.17-.05,.17-.39,.63-.47,.67l-25.32,12.5" style="fill:#506f2a;"/><path d="M144.17,15.1l18.24-.04c.08,0,.12,.09,.1,.17-.05,.17-.39,.63-.47,.67l-25.32,12.5" style="fill:none; stroke:#4f6f2a; stroke-miterlimit:10; stroke-width:1.27px;"/><path d="M161.27,9.51s-1.9-4.39-3.05-5.41c-.71-.63-2.56-1.37-3.5-1.41-1.86-.09-5.48,1.18-7.34,1.29-1.18,.07-3.57-.44-4.74-.24-1.26,.22-3.74,1.17-4.74,2-.91,.75-2.35,2.72-2.93,3.76-1.37,2.45-2.53,8.16-3.95,10.59-1.09,1.85-3.85,5.19-5.53,6.47-2.07,1.58-7.11,3.09-9.37,4.35-1.05,.58-3.05,2.01-3.84,2.94-2.6,3.1-6.3,11.08-8.35,14-1.86,2.65-4.57,4.29-6.43,5.29-1.57,.84-5.77,1.71-7.39,1-2.14-.94-4.2-3.36-4.74-5.06-.56-1.76,1.98-9.59,1.98-9.59,0,0-3.33,2.88-4.35,7.47-.91,4.11-.84,7.65-.34,9.53,.79,2.94,3.66,6.09,5.87,7.29,2.6,1.41,6.3,1.76,9.03,1.76,2.37,0,6.02-.85,8.24-1.65,3.79-1.36,11.91-6.29,11.91-6.29l-.45,5.41-1.02,9.64,13.66-.35s1.42-4.64-3.27-9.88c-1.58-1.76,3.39-3.29,6.43-8,.6-.93-1.02-3.65-1.02-3.65,0,0,6.99-4.2,8.92-6.12,1.67-1.66,4.35-5.63,5.42-7.76,1.12-2.23,3.16-9.53,3.16-9.53l-4.63,1.41s8.08-2.51,10.61-3.76c1.38-.69,4.26-2.14,5.19-3.41,.89-1.22,1.69-5.88,1.69-5.88,0,0-4.52,2.02-6.09,2.47-2.76,.79-11.29,2-11.29,2,0,0,5.81-2.63,7.45-4,1.2-1.01,2.68-4.02,3.95-4.94,1.06-.76,4.85-1.76,4.85-1.76" style="fill:#b5d490;"/><path d="M161.27,9.51s-1.9-4.39-3.05-5.41c-.71-.63-2.56-1.37-3.5-1.41-1.86-.09-5.48,1.18-7.34,1.29-1.18,.07-3.57-.44-4.74-.24-1.26,.22-3.74,1.17-4.74,2-.91,.75-2.35,2.72-2.93,3.76-1.37,2.45-2.53,8.16-3.95,10.59-1.09,1.85-3.85,5.19-5.53,6.47-2.07,1.58-7.11,3.09-9.37,4.35-1.05,.58-3.05,2.01-3.84,2.94-2.6,3.1-6.3,11.08-8.35,14-1.86,2.65-4.57,4.29-6.43,5.29-1.57,.84-5.77,1.71-7.39,1-2.14-.94-4.2-3.36-4.74-5.06-.56-1.76,1.98-9.59,1.98-9.59,0,0-3.33,2.88-4.35,7.47-.91,4.11-.84,7.65-.34,9.53,.79,2.94,3.66,6.09,5.87,7.29,2.6,1.41,6.3,1.76,9.03,1.76,2.37,0,6.02-.85,8.24-1.65,3.79-1.36,11.91-6.29,11.91-6.29l-.45,5.41-1.02,9.64,13.66-.35s1.42-4.64-3.27-9.88c-1.58-1.76,3.39-3.29,6.43-8,.6-.93-1.02-3.65-1.02-3.65,0,0,6.99-4.2,8.92-6.12,1.67-1.66,4.35-5.63,5.42-7.76,1.12-2.23,3.16-9.53,3.16-9.53l-4.63,1.41s8.08-2.51,10.61-3.76c1.38-.69,4.26-2.14,5.19-3.41,.89-1.22,1.69-5.88,1.69-5.88,0,0-4.52,2.02-6.09,2.47-2.76,.79-11.29,2-11.29,2,0,0,5.81-2.63,7.45-4,1.2-1.01,2.68-4.02,3.95-4.94,1.06-.76,4.85-1.76,4.85-1.76Z" style="fill:none; stroke:#4f6f2a; stroke-miterlimit:10; stroke-width:1.27px;"/><path d="M142.87,34.56s4.33,.37,5.87,.71c1.79,.39,3.26,1.22,3.72,1.88,.75,1.08,1.19,2.41,1.24,3.29,.04,.7,.06,1.94-.68,2.71-.81,.84-1.8,1.17-2.48,1.18-.61,0-1.64-.17-2.26-1-.62-.83,.28-1.65-.51-2.35-1.68-1.5-8.3-1.82-8.3-1.82" style="fill:#b5d490;"/><path d="M142.87,34.56s4.33,.37,5.87,.71c1.79,.39,3.26,1.22,3.72,1.88,.75,1.08,1.19,2.41,1.24,3.29,.04,.7,.06,1.94-.68,2.71-.81,.84-1.8,1.17-2.48,1.18-.61,0-1.64-.17-2.26-1-.62-.83,.28-1.65-.51-2.35-1.68-1.5-8.3-1.82-8.3-1.82" style="fill:none; stroke:#4f6f2a; stroke-miterlimit:10; stroke-width:1.27px;"/><path d="M114.43,45.15s.2,6.99,.56,9.29c.18,1.11,1.34,5.13,2.03,6,1.68,2.1,4.48,3.04,6.09,6.47,1.64,3.47,1.18,6.49,1.39,6.89,.05,.1,.16,.15,.26,.13l10.88-1.85s-1-2.6-1.3-3.82c-.62-2.53-3.5-3.88-5.08-5.53-.98-1.02,1.35-4.94,2.14-5.76,1.46-1.52,1.83-2.2,2.88-4.06,.66-1.17,1.73-3.71,1.96-5.05,.25-1.51,.04-4.63-.26-6.13-.24-1.2-1.13-3.18-1.69-4.59" style="fill:#b5d490;"/><path d="M114.43,45.15s.2,6.99,.56,9.29c.18,1.11,1.34,5.13,2.03,6,1.68,2.1,4.48,3.04,6.09,6.47,1.64,3.47,1.18,6.49,1.39,6.89,.05,.1,.16,.15,.26,.13l10.88-1.85s-1-2.6-1.3-3.82c-.62-2.53-3.5-3.88-5.08-5.53-.98-1.02,1.35-4.94,2.14-5.76,1.46-1.52,1.83-2.2,2.88-4.06,.66-1.17,1.73-3.71,1.96-5.05,.25-1.51,.04-4.63-.26-6.13-.24-1.2-1.13-3.18-1.69-4.59" style="fill:none; stroke:#4f702a; stroke-miterlimit:10; stroke-width:1.27px;"/><path d="M145.98,11.45c0,.97-.76,1.76-1.69,1.76s-1.69-.79-1.69-1.76,.76-1.76,1.69-1.76,1.69,.79,1.69,1.76" style="fill:#9b3a43;"/></g></g><image width="545" height="275" transform="translate(-1.38 48.99) scale(.14)" xlink:href="../../../gDrive-team/metarex/metarex-art/original-ideas/metarex-train-fluids.png"/><image width="795" height="355" transform="translate(137.96 37.78) scale(.14)" xlink:href="../../../gDrive-team/metarex/metarex-art/original-ideas/metarex-train-loco.png"/><use transform="translate(73.25 52.34) scale(.14)" xlink:href="#image"/><use transform="translate(-74.26 52.34) scale(.14)" xlink:href="#image"/><text transform="translate(163.26 72.98)" style="font-family:MavenPro-Bold, &apos;Maven Pro&apos;; font-size:15px; font-weight:700;"><tspan x="0" y="0" style="fill:#9aca35;">M</tspan><tspan x="12.69" y="0" style="fill:#fff; letter-spacing:0em;">eta</tspan><tspan x="35.89" y="0" style="fill:#9aca35;">R</tspan><tspan x="46.53" y="0" style="fill:#fff; letter-spacing:0em;">e</tspan><tspan x="54.96" y="0" style="fill:#9aca35; letter-spacing:0em;">x</tspan></text><rect x="80.91" y="58.19" width="59.77" height="14.79" style="fill:none; stroke:#fff; stroke-miterlimit:10;"/><text transform="translate(91.16 68.28)" style="fill:#fff; font-family:UbuntuMono-Bold, &apos;Ubuntu Mono&apos;; font-size:11px; font-weight:700;"><tspan x="0" y="0">&lt;xml /&gt;</tspan></text><text transform="translate(11.15 59.59)" style="fill:#fff; font-family:UbuntuMono-Bold, &apos;Ubuntu Mono&apos;; font-size:7px; font-weight:700;"><tspan x="0" y="0">101001010001001</tspan><tspan x="0" y="8.4">010010101010010</tspan><tspan x="0" y="16.8">101010111110001</tspan></text></g><g id="grid"><line x1="246.79" y1="86.19" x2="-471.32" y2="86.19" style="fill:#fff; stroke:#9a3a73; stroke-miterlimit:10;"/></g></svg>