<svg id="Layer_1"
    xmlns="http://www.w3.org/2000/svg" viewBox="0 0 800 800">
    <path id="jaw" d="M604.23,209.65l161.61-.37c.68,.08,1.11,.76,.9,1.41-.46,1.42-3.47,5.35-4.2,5.69l-224.31,106.26" style="fill:#506f2a; stroke:#4f6f2a; stroke-miterlimit:10; stroke-width:11px;"/>
    <path id="body" d="M755.73,162.15s-16.84-37.36-27-46c-6.33-5.38-22.7-11.61-31-12-16.46-.78-48.55,10.01-65,11-10.49,.63-31.64-3.76-42-2-11.17,1.9-33.13,9.95-42,17-8.07,6.42-20.82,23.09-26,32-12.13,20.87-22.4,69.41-35,90-9.61,15.71-34.13,44.13-49,55-18.34,13.41-62.96,26.29-83,37-9.3,4.97-27.06,17.05-34,25-23.05,26.38-55.85,94.24-74,119-16.5,22.5-40.5,36.5-57,45-13.89,7.16-51.1,14.56-65.5,8.5-19-8-37.18-28.54-42-43s17.5-81.5,17.5-81.5c0,0-29.5,24.5-38.5,63.5-8.07,34.98-7.46,65.07-3,81,7,25,32.42,51.78,52,62,23,12,55.81,15,80,15,21,0,53.3-7.21,73-14,33.62-11.58,105.5-53.5,105.5-53.5l-4,46-9,82,121-3s12.59-39.44-29-84c-14-15,30-28,57-68,5.32-7.88-9-31-9-31,0,0,61.9-35.68,79-52,14.76-14.09,38.56-47.91,48-66,9.91-19,28-81,28-81l-41,12s71.6-21.31,94-32c12.27-5.86,37.77-18.18,46-29,7.9-10.39,15-50,15-50,0,0-40.04,17.14-54,21-24.44,6.76-100,17-100,17,0,0,51.52-22.39,66-34,10.66-8.55,23.76-34.22,35-42,9.36-6.48,43-15,43-15Z" style="fill:#81aa2f; stroke:#4f6f2a; stroke-miterlimit:10; stroke-width:11px;"/>
    <path id="paw" d="M592.73,375.15s38.35,3.14,52,6c15.89,3.33,28.87,10.34,33,16,6.68,9.16,10.55,20.49,11,28,.35,5.93,.5,16.5-6,23-7.16,7.16-15.96,9.92-22,10-5.43,.07-14.52-1.49-20-8.48s2.5-14.02-4.5-20.02c-14.87-12.75-73.5-15.5-73.5-15.5" style="fill:#81aa2f; stroke:#4f6f2a; stroke-miterlimit:10; stroke-width:11px;"/>
    <path id="leg" d="M340.73,465.15s1.78,59.47,5,79c1.56,9.45,11.86,43.64,18,51,14.85,17.81,39.69,25.88,54,55s10.42,55.2,12.31,58.61c.46,.83,1.4,1.28,2.33,1.13l96.35-15.74s-8.85-22.13-11.5-32.5c-5.5-21.5-31-33-45-47-8.67-8.67,12-42,19-49,12.95-12.95,16.22-18.71,25.5-34.5,5.86-9.97,15.37-31.51,17.32-42.91,2.2-12.85,.34-39.33-2.32-52.09-2.14-10.23-10-27-15-39" style="fill:#81aa2f; stroke:#4f6f2a; stroke-miterlimit:10; stroke-width:11px;"/>
    <circle cx="605.23" cy="178.65" r="15" style="fill:#6e1c0f;"/>
</svg>