<?xml version="1.0" encoding="UTF-8"?>
<svg xmlns="http://www.w3.org/2000/svg" viewBox="0 0 70.87 70.87">
  <defs>
    <style>
      .cls-1 {
        fill: #fff;
      }

      .cls-2 {
        fill: none;
        stroke: #c2a649;
        stroke-miterlimit: 10;
        stroke-width: 2px;
      }

      .cls-3 {
        fill: #9a3a73;
      }

      .cls-4 {
        fill: #c2a649;
      }
    </style>
  </defs>
  <g id="bg_white" data-name="bg white">
    <circle class="cls-1" cx="35.92" cy="35.43" r="34.02"/>
  </g>
  <g id="mrMxf">
    <g>
      <path class="cls-4" d="m21.02,32.91V14.9h4.46l6.18,8.61-2.38.08,6.4-8.69h4.35v18.01h-4.37v-14.71l.86,1.4-6.16,8.18-6.1-8.32.94-.65v14.09h-4.19Z"/>
      <path class="cls-4" d="m43.73,32.91v-12.23c.25-.22.7-.46,1.35-.74.65-.28,1.39-.53,2.23-.76s1.68-.34,2.52-.34,1.51.06,2,.19c.49.13.85.29,1.11.49v2.94c-.31-.07-.69-.13-1.16-.16-.47-.04-.95-.06-1.46-.07-.5,0-.98,0-1.43.01-.45.02-.83.05-1.13.11v10.56h-4.02Z"/>
      <path class="cls-3" d="m10.92,55.91v-20.01h4.95l6.87,9.57-2.64.09,7.11-9.66h4.83v20.01h-4.86v-16.35l.96,1.56-6.84,9.09-6.78-9.24,1.05-.72v15.66h-4.65Z"/>
      <path class="cls-4" d="m43.65,49.85l-4.14,6.06h-4.71l6.81-8.91,2.04,2.85Zm7.44,6.06h-5.31l-10.83-15.18h5.28l10.86,15.18Zm-8.76-8.97l4.26-6.21h4.74l-6.96,9.12-2.04-2.91Z"/>
      <path class="cls-4" d="m55.11,55.91v-11.76h-2.25v-3.42h2.28v-.36c0-.98.1-1.82.3-2.52.2-.7.48-1.29.84-1.76.36-.47.78-.83,1.26-1.09.48-.26,1.01-.44,1.59-.55.58-.11,1.18-.17,1.8-.17.32,0,.67.03,1.05.08.38.05.69.12.93.22v3.96c-.18-.22-.38-.39-.6-.51s-.52-.18-.9-.18c-.26,0-.5.03-.72.09-.22.06-.41.16-.57.3s-.28.34-.38.6c-.09.26-.13.59-.13.99v.9h3.3v3.42h-3.33v11.76h-4.47Z"/>
    </g>
  </g>
  <g id="fg_border_plain" data-name="fg border plain">
    <circle class="cls-2" cx="35.42" cy="35.43" r="34.02"/>
  </g>
</svg>